<svg id="visual" viewBox="0 0 960 300" width="960" height="300" xmlns="http://www.w3.org/2000/svg" xmlns:xlink="http://www.w3.org/1999/xlink" version="1.1"><g stroke-width="1" stroke-linejoin="bevel"><path d="M468 162.4L477 191.3L524 180.4Z" fill="#ca8498" stroke="#ffffff"></path><path d="M524 180.4L467 117.6L468 162.4Z" fill="#a36196" stroke="#ffffff"></path><path d="M490 245.1L550 222.1L524 180.4Z" fill="#d5949d" stroke="#ffffff"></path><path d="M405 217.3L490 245.1L477 191.3Z" fill="#da9ca0" stroke="#ffffff"></path><path d="M477 191.3L490 245.1L524 180.4Z" fill="#ca8498" stroke="#ffffff"></path><path d="M420 114.7L415 178.4L468 162.4Z" fill="#c47c97" stroke="#ffffff"></path><path d="M468 162.4L415 178.4L477 191.3Z" fill="#d08c9a" stroke="#ffffff"></path><path d="M578 122.7L567 109.6L524 180.4Z" fill="#d5949d" stroke="#ffffff"></path><path d="M524 180.4L567 109.6L467 117.6Z" fill="#dea5a4" stroke="#ffffff"></path><path d="M591 159.4L578 122.7L524 180.4Z" fill="#ac6796" stroke="#ffffff"></path><path d="M452 45.7L420 114.7L467 117.6Z" fill="#a36196" stroke="#ffffff"></path><path d="M467 117.6L420 114.7L468 162.4Z" fill="#985c97" stroke="#ffffff"></path><path d="M550 222.1L591 159.4L524 180.4Z" fill="#da9ca0" stroke="#ffffff"></path><path d="M490 245.1L562 240.3L550 222.1Z" fill="#b56e96" stroke="#ffffff"></path><path d="M550 222.1L603 217.3L591 159.4Z" fill="#ca8498" stroke="#ffffff"></path><path d="M373 191.4L405 217.3L415 178.4Z" fill="#a36196" stroke="#ffffff"></path><path d="M415 178.4L405 217.3L477 191.3Z" fill="#a36196" stroke="#ffffff"></path><path d="M616 78.9L548 72.7L567 109.6Z" fill="#b56e96" stroke="#ffffff"></path><path d="M567 109.6L548 72.7L467 117.6Z" fill="#b56e96" stroke="#ffffff"></path><path d="M420 114.7L394 131.6L415 178.4Z" fill="#d5949d" stroke="#ffffff"></path><path d="M591 159.4L598 124.7L578 122.7Z" fill="#d08c9a" stroke="#ffffff"></path><path d="M578 122.7L605 108.6L567 109.6Z" fill="#d5949d" stroke="#ffffff"></path><path d="M548 72.7L478 56.9L467 117.6Z" fill="#ac6796" stroke="#ffffff"></path><path d="M420 114.7L379 70.9L394 131.6Z" fill="#c47c97" stroke="#ffffff"></path><path d="M562 240.3L603 217.3L550 222.1Z" fill="#c47c97" stroke="#ffffff"></path><path d="M591 159.4L630 160.6L598 124.7Z" fill="#da9ca0" stroke="#ffffff"></path><path d="M394 131.6L375 154.6L415 178.4Z" fill="#985c97" stroke="#ffffff"></path><path d="M630 160.6L605 108.6L598 124.7Z" fill="#d5949d" stroke="#ffffff"></path><path d="M598 124.7L605 108.6L578 122.7Z" fill="#da9ca0" stroke="#ffffff"></path><path d="M375 154.6L373 191.4L415 178.4Z" fill="#c47c97" stroke="#ffffff"></path><path d="M490 245.1L562 282.1L562 240.3Z" fill="#da9ca0" stroke="#ffffff"></path><path d="M562 240.3L610 281.1L603 217.3Z" fill="#dea5a4" stroke="#ffffff"></path><path d="M508 300L562 282.1L490 245.1Z" fill="#985c97" stroke="#ffffff"></path><path d="M472 300L490 245.1L414 281.1Z" fill="#ca8498" stroke="#ffffff"></path><path d="M472 300L500 300L490 245.1Z" fill="#bd7596" stroke="#ffffff"></path><path d="M500 300L508 300L490 245.1Z" fill="#b56e96" stroke="#ffffff"></path><path d="M603 217.3L628 166.4L591 159.4Z" fill="#a36196" stroke="#ffffff"></path><path d="M471 19.9L452 45.7L478 56.9Z" fill="#bd7596" stroke="#ffffff"></path><path d="M478 56.9L452 45.7L467 117.6Z" fill="#d5949d" stroke="#ffffff"></path><path d="M394 131.6L326 130.4L375 154.6Z" fill="#985c97" stroke="#ffffff"></path><path d="M414 281.1L490 245.1L405 217.3Z" fill="#d08c9a" stroke="#ffffff"></path><path d="M628 166.4L630 160.6L591 159.4Z" fill="#a36196" stroke="#ffffff"></path><path d="M368 247.3L414 281.1L405 217.3Z" fill="#a36196" stroke="#ffffff"></path><path d="M644 228.1L631 210.3L603 217.3Z" fill="#a36196" stroke="#ffffff"></path><path d="M603 217.3L631 210.3L628 166.4Z" fill="#c47c97" stroke="#ffffff"></path><path d="M628 166.4L695 173.3L630 160.6Z" fill="#d5949d" stroke="#ffffff"></path><path d="M375 154.6L353 183.3L373 191.4Z" fill="#a36196" stroke="#ffffff"></path><path d="M373 191.4L368 247.3L405 217.3Z" fill="#a36196" stroke="#ffffff"></path><path d="M326 130.4L353 183.3L375 154.6Z" fill="#bd7596" stroke="#ffffff"></path><path d="M655 64.9L616 78.9L605 108.6Z" fill="#da9ca0" stroke="#ffffff"></path><path d="M605 108.6L616 78.9L567 109.6Z" fill="#a36196" stroke="#ffffff"></path><path d="M548 72.7L548 26.9L478 56.9Z" fill="#b56e96" stroke="#ffffff"></path><path d="M327 216.3L368 247.3L373 191.4Z" fill="#b56e96" stroke="#ffffff"></path><path d="M616 78.9L548 26.9L548 72.7Z" fill="#985c97" stroke="#ffffff"></path><path d="M644 228.1L643 208.4L631 210.3Z" fill="#d08c9a" stroke="#ffffff"></path><path d="M631 210.3L643 208.4L628 166.4Z" fill="#b56e96" stroke="#ffffff"></path><path d="M630 160.6L655 64.9L605 108.6Z" fill="#ca8498" stroke="#ffffff"></path><path d="M497 0L471 19.9L478 56.9Z" fill="#b56e96" stroke="#ffffff"></path><path d="M394 48.7L420 114.7L452 45.7Z" fill="#d5949d" stroke="#ffffff"></path><path d="M394 48.7L379 70.9L420 114.7Z" fill="#a36196" stroke="#ffffff"></path><path d="M414 281.1L416 300L472 300Z" fill="#bd7596" stroke="#ffffff"></path><path d="M393 286.1L416 300L414 281.1Z" fill="#d5949d" stroke="#ffffff"></path><path d="M368 247.3L393 286.1L414 281.1Z" fill="#d08c9a" stroke="#ffffff"></path><path d="M465 0L394 48.7L452 45.7Z" fill="#b56e96" stroke="#ffffff"></path><path d="M610 281.1L644 228.1L603 217.3Z" fill="#bd7596" stroke="#ffffff"></path><path d="M598 300L610 281.1L562 282.1Z" fill="#dea5a4" stroke="#ffffff"></path><path d="M562 282.1L610 281.1L562 240.3Z" fill="#bd7596" stroke="#ffffff"></path><path d="M508 300L598 300L562 282.1Z" fill="#a36196" stroke="#ffffff"></path><path d="M610 281.1L633 300L644 228.1Z" fill="#bd7596" stroke="#ffffff"></path><path d="M394 48.7L375 56.9L379 70.9Z" fill="#d08c9a" stroke="#ffffff"></path><path d="M379 70.9L326 130.4L394 131.6Z" fill="#bd7596" stroke="#ffffff"></path><path d="M515 0L497 0L478 56.9Z" fill="#da9ca0" stroke="#ffffff"></path><path d="M471 19.9L465 0L452 45.7Z" fill="#a36196" stroke="#ffffff"></path><path d="M357 0L313 69.9L375 56.9Z" fill="#985c97" stroke="#ffffff"></path><path d="M548 26.9L515 0L478 56.9Z" fill="#da9ca0" stroke="#ffffff"></path><path d="M590 0L515 0L548 26.9Z" fill="#d08c9a" stroke="#ffffff"></path><path d="M497 0L465 0L471 19.9Z" fill="#dea5a4" stroke="#ffffff"></path><path d="M310 117.7L326 130.4L305 105.6Z" fill="#c47c97" stroke="#ffffff"></path><path d="M353 183.3L327 216.3L373 191.4Z" fill="#c47c97" stroke="#ffffff"></path><path d="M300 157.6L327 216.3L353 183.3Z" fill="#b56e96" stroke="#ffffff"></path><path d="M368 247.3L363 300L393 286.1Z" fill="#985c97" stroke="#ffffff"></path><path d="M335 276.1L363 300L368 247.3Z" fill="#ca8498" stroke="#ffffff"></path><path d="M393 286.1L363 300L416 300Z" fill="#c47c97" stroke="#ffffff"></path><path d="M598 300L633 300L610 281.1Z" fill="#c47c97" stroke="#ffffff"></path><path d="M708 93.7L655 64.9L630 160.6Z" fill="#bd7596" stroke="#ffffff"></path><path d="M616 78.9L590 0L548 26.9Z" fill="#da9ca0" stroke="#ffffff"></path><path d="M695 173.3L628 166.4L643 208.4Z" fill="#da9ca0" stroke="#ffffff"></path><path d="M638 0L590 0L616 78.9Z" fill="#a36196" stroke="#ffffff"></path><path d="M305 105.6L326 130.4L313 69.9Z" fill="#d5949d" stroke="#ffffff"></path><path d="M326 130.4L300 157.6L353 183.3Z" fill="#c47c97" stroke="#ffffff"></path><path d="M327 216.3L335 276.1L368 247.3Z" fill="#bd7596" stroke="#ffffff"></path><path d="M294 300L335 276.1L277 286.1Z" fill="#a36196" stroke="#ffffff"></path><path d="M310 117.7L300 157.6L326 130.4Z" fill="#da9ca0" stroke="#ffffff"></path><path d="M695 192.3L643 208.4L644 228.1Z" fill="#985c97" stroke="#ffffff"></path><path d="M695 192.3L695 173.3L643 208.4Z" fill="#b56e96" stroke="#ffffff"></path><path d="M711 270.1L695 192.3L644 228.1Z" fill="#ac6796" stroke="#ffffff"></path><path d="M313 69.9L326 130.4L379 70.9Z" fill="#dea5a4" stroke="#ffffff"></path><path d="M310 117.7L290 123.7L300 157.6Z" fill="#dea5a4" stroke="#ffffff"></path><path d="M357 0L375 56.9L394 48.7Z" fill="#d5949d" stroke="#ffffff"></path><path d="M375 56.9L313 69.9L379 70.9Z" fill="#d5949d" stroke="#ffffff"></path><path d="M245 107.7L290 123.7L305 105.6Z" fill="#ac6796" stroke="#ffffff"></path><path d="M305 105.6L290 123.7L310 117.7Z" fill="#a36196" stroke="#ffffff"></path><path d="M300 157.6L261 200.4L327 216.3Z" fill="#bd7596" stroke="#ffffff"></path><path d="M737 174.4L712 165.6L695 192.3Z" fill="#985c97" stroke="#ffffff"></path><path d="M695 192.3L712 165.6L695 173.3Z" fill="#dea5a4" stroke="#ffffff"></path><path d="M695 173.3L708 93.7L630 160.6Z" fill="#d08c9a" stroke="#ffffff"></path><path d="M465 0L357 0L394 48.7Z" fill="#d08c9a" stroke="#ffffff"></path><path d="M655 64.9L638 0L616 78.9Z" fill="#a36196" stroke="#ffffff"></path><path d="M680 0L638 0L655 64.9Z" fill="#b56e96" stroke="#ffffff"></path><path d="M712 165.6L708 93.7L695 173.3Z" fill="#ac6796" stroke="#ffffff"></path><path d="M708 93.7L706 67.9L655 64.9Z" fill="#ca8498" stroke="#ffffff"></path><path d="M633 300L711 270.1L644 228.1Z" fill="#985c97" stroke="#ffffff"></path><path d="M232 192.3L261 200.4L300 157.6Z" fill="#dea5a4" stroke="#ffffff"></path><path d="M737 209.4L737 174.4L695 192.3Z" fill="#a36196" stroke="#ffffff"></path><path d="M712 165.6L737 113.7L708 93.7Z" fill="#d5949d" stroke="#ffffff"></path><path d="M708 93.7L733 91.6L706 67.9Z" fill="#ca8498" stroke="#ffffff"></path><path d="M277 286.1L335 276.1L327 216.3Z" fill="#ac6796" stroke="#ffffff"></path><path d="M335 276.1L294 300L363 300Z" fill="#d5949d" stroke="#ffffff"></path><path d="M711 270.1L737 209.4L695 192.3Z" fill="#ac6796" stroke="#ffffff"></path><path d="M357 0L318 0L313 69.9Z" fill="#985c97" stroke="#ffffff"></path><path d="M313 69.9L245 107.7L305 105.6Z" fill="#ac6796" stroke="#ffffff"></path><path d="M220 136.6L232 192.3L300 157.6Z" fill="#b56e96" stroke="#ffffff"></path><path d="M737 174.4L737 113.7L712 165.6Z" fill="#ac6796" stroke="#ffffff"></path><path d="M737 113.7L733 91.6L708 93.7Z" fill="#b56e96" stroke="#ffffff"></path><path d="M706 67.9L680 0L655 64.9Z" fill="#a36196" stroke="#ffffff"></path><path d="M261 200.4L277 286.1L327 216.3Z" fill="#b56e96" stroke="#ffffff"></path><path d="M685 0L680 0L706 67.9Z" fill="#a36196" stroke="#ffffff"></path><path d="M717 12.9L685 0L706 67.9Z" fill="#d5949d" stroke="#ffffff"></path><path d="M250 0L245 107.7L313 69.9Z" fill="#b56e96" stroke="#ffffff"></path><path d="M633 300L722 300L711 270.1Z" fill="#c47c97" stroke="#ffffff"></path><path d="M711 270.1L778 263.1L737 209.4Z" fill="#bd7596" stroke="#ffffff"></path><path d="M220 136.6L300 157.6L290 123.7Z" fill="#a36196" stroke="#ffffff"></path><path d="M261 200.4L201 261.1L277 286.1Z" fill="#985c97" stroke="#ffffff"></path><path d="M775 38.9L717 12.9L706 67.9Z" fill="#ac6796" stroke="#ffffff"></path><path d="M211 117.6L220 136.6L245 107.7Z" fill="#a36196" stroke="#ffffff"></path><path d="M245 107.7L220 136.6L290 123.7Z" fill="#bd7596" stroke="#ffffff"></path><path d="M821 200.3L776 147.6L737 174.4Z" fill="#c47c97" stroke="#ffffff"></path><path d="M737 174.4L776 147.6L737 113.7Z" fill="#b56e96" stroke="#ffffff"></path><path d="M737 113.7L784 98.7L733 91.6Z" fill="#ac6796" stroke="#ffffff"></path><path d="M775 38.9L737 0L717 12.9Z" fill="#c47c97" stroke="#ffffff"></path><path d="M821 200.3L737 174.4L737 209.4Z" fill="#d5949d" stroke="#ffffff"></path><path d="M318 0L270 0L313 69.9Z" fill="#985c97" stroke="#ffffff"></path><path d="M220 136.6L212 161.4L232 192.3Z" fill="#bd7596" stroke="#ffffff"></path><path d="M232 192.3L201 261.1L261 200.4Z" fill="#bd7596" stroke="#ffffff"></path><path d="M178 72.9L211 117.6L245 107.7Z" fill="#a36196" stroke="#ffffff"></path><path d="M220 136.6L179 151.4L212 161.4Z" fill="#c47c97" stroke="#ffffff"></path><path d="M775 38.9L706 67.9L733 91.6Z" fill="#da9ca0" stroke="#ffffff"></path><path d="M717 12.9L737 0L685 0Z" fill="#da9ca0" stroke="#ffffff"></path><path d="M776 147.6L784 98.7L737 113.7Z" fill="#b56e96" stroke="#ffffff"></path><path d="M722 300L778 263.1L711 270.1Z" fill="#bd7596" stroke="#ffffff"></path><path d="M776 147.6L826 111.6L784 98.7Z" fill="#b56e96" stroke="#ffffff"></path><path d="M270 0L250 0L313 69.9Z" fill="#ac6796" stroke="#ffffff"></path><path d="M778 263.1L788 253.3L737 209.4Z" fill="#d5949d" stroke="#ffffff"></path><path d="M784 98.7L775 38.9L733 91.6Z" fill="#dea5a4" stroke="#ffffff"></path><path d="M184 179.3L232 192.3L212 161.4Z" fill="#c47c97" stroke="#ffffff"></path><path d="M173 236.1L201 261.1L232 192.3Z" fill="#da9ca0" stroke="#ffffff"></path><path d="M277 286.1L209 300L294 300Z" fill="#da9ca0" stroke="#ffffff"></path><path d="M179 151.4L184 179.3L212 161.4Z" fill="#ac6796" stroke="#ffffff"></path><path d="M179 151.4L220 136.6L211 117.6Z" fill="#dea5a4" stroke="#ffffff"></path><path d="M207 300L209 300L201 261.1Z" fill="#d5949d" stroke="#ffffff"></path><path d="M201 261.1L209 300L277 286.1Z" fill="#da9ca0" stroke="#ffffff"></path><path d="M250 0L218 16.9L245 107.7Z" fill="#bd7596" stroke="#ffffff"></path><path d="M171 300L207 300L201 261.1Z" fill="#da9ca0" stroke="#ffffff"></path><path d="M168 131.4L179 151.4L211 117.6Z" fill="#ac6796" stroke="#ffffff"></path><path d="M179 151.4L178 185.3L184 179.3Z" fill="#d08c9a" stroke="#ffffff"></path><path d="M184 179.3L178 185.3L232 192.3Z" fill="#985c97" stroke="#ffffff"></path><path d="M836 68.7L788 37.9L784 98.7Z" fill="#985c97" stroke="#ffffff"></path><path d="M784 98.7L788 37.9L775 38.9Z" fill="#b56e96" stroke="#ffffff"></path><path d="M775 38.9L788 37.9L737 0Z" fill="#c47c97" stroke="#ffffff"></path><path d="M778 263.1L802 266.1L788 253.3Z" fill="#c47c97" stroke="#ffffff"></path><path d="M788 253.3L821 200.3L737 209.4Z" fill="#b56e96" stroke="#ffffff"></path><path d="M791 300L802 266.1L778 263.1Z" fill="#dea5a4" stroke="#ffffff"></path><path d="M722 300L791 300L778 263.1Z" fill="#ac6796" stroke="#ffffff"></path><path d="M823 238.3L821 200.3L788 253.3Z" fill="#da9ca0" stroke="#ffffff"></path><path d="M107 280.1L173 236.1L64 239.1Z" fill="#d08c9a" stroke="#ffffff"></path><path d="M178 185.3L173 236.1L232 192.3Z" fill="#d5949d" stroke="#ffffff"></path><path d="M178 72.9L168 131.4L211 117.6Z" fill="#d5949d" stroke="#ffffff"></path><path d="M179 151.4L168 131.4L178 185.3Z" fill="#a36196" stroke="#ffffff"></path><path d="M791 300L802 300L802 266.1Z" fill="#dea5a4" stroke="#ffffff"></path><path d="M802 266.1L823 238.3L788 253.3Z" fill="#985c97" stroke="#ffffff"></path><path d="M178 67.9L178 72.9L245 107.7Z" fill="#ca8498" stroke="#ffffff"></path><path d="M849 300L823 238.3L802 266.1Z" fill="#ca8498" stroke="#ffffff"></path><path d="M847 179.4L776 147.6L821 200.3Z" fill="#b56e96" stroke="#ffffff"></path><path d="M847 179.4L826 111.6L776 147.6Z" fill="#a36196" stroke="#ffffff"></path><path d="M218 16.9L178 67.9L245 107.7Z" fill="#dea5a4" stroke="#ffffff"></path><path d="M178 72.9L131 99.6L168 131.4Z" fill="#da9ca0" stroke="#ffffff"></path><path d="M878 187.4L847 179.4L821 200.3Z" fill="#ca8498" stroke="#ffffff"></path><path d="M878 187.4L821 200.3L823 238.3Z" fill="#bd7596" stroke="#ffffff"></path><path d="M107 280.1L171 300L173 236.1Z" fill="#dea5a4" stroke="#ffffff"></path><path d="M173 236.1L171 300L201 261.1Z" fill="#ac6796" stroke="#ffffff"></path><path d="M178 67.9L160 60.7L178 72.9Z" fill="#dea5a4" stroke="#ffffff"></path><path d="M168 131.4L81 136.6L178 185.3Z" fill="#bd7596" stroke="#ffffff"></path><path d="M170 0L160 60.7L178 67.9Z" fill="#b56e96" stroke="#ffffff"></path><path d="M826 111.6L836 68.7L784 98.7Z" fill="#c47c97" stroke="#ffffff"></path><path d="M788 37.9L830 0L737 0Z" fill="#c47c97" stroke="#ffffff"></path><path d="M897 117.6L836 68.7L826 111.6Z" fill="#c47c97" stroke="#ffffff"></path><path d="M250 0L170 0L218 16.9Z" fill="#da9ca0" stroke="#ffffff"></path><path d="M218 16.9L170 0L178 67.9Z" fill="#b56e96" stroke="#ffffff"></path><path d="M878 0L832 12.9L899 56.7Z" fill="#d5949d" stroke="#ffffff"></path><path d="M836 68.7L832 12.9L788 37.9Z" fill="#985c97" stroke="#ffffff"></path><path d="M117 95.7L131 99.6L118 54.7Z" fill="#bd7596" stroke="#ffffff"></path><path d="M160 60.7L131 99.6L178 72.9Z" fill="#b56e96" stroke="#ffffff"></path><path d="M832 12.9L830 0L788 37.9Z" fill="#d08c9a" stroke="#ffffff"></path><path d="M802 300L849 300L802 266.1Z" fill="#d5949d" stroke="#ffffff"></path><path d="M117 95.7L122 108.6L131 99.6Z" fill="#dea5a4" stroke="#ffffff"></path><path d="M131 99.6L122 108.6L168 131.4Z" fill="#ca8498" stroke="#ffffff"></path><path d="M902 257.1L878 187.4L823 238.3Z" fill="#ca8498" stroke="#ffffff"></path><path d="M847 179.4L890 161.6L826 111.6Z" fill="#a36196" stroke="#ffffff"></path><path d="M832 12.9L878 0L830 0Z" fill="#da9ca0" stroke="#ffffff"></path><path d="M118 54.7L131 99.6L160 60.7Z" fill="#d08c9a" stroke="#ffffff"></path><path d="M68 183.4L173 236.1L178 185.3Z" fill="#ca8498" stroke="#ffffff"></path><path d="M849 300L874 277.1L823 238.3Z" fill="#985c97" stroke="#ffffff"></path><path d="M902 182.4L890 161.6L878 187.4Z" fill="#b56e96" stroke="#ffffff"></path><path d="M878 187.4L890 161.6L847 179.4Z" fill="#b56e96" stroke="#ffffff"></path><path d="M170 0L125 36.9L160 60.7Z" fill="#ac6796" stroke="#ffffff"></path><path d="M125 36.9L118 54.7L160 60.7Z" fill="#a36196" stroke="#ffffff"></path><path d="M941 118.7L897 117.6L890 161.6Z" fill="#985c97" stroke="#ffffff"></path><path d="M890 161.6L897 117.6L826 111.6Z" fill="#bd7596" stroke="#ffffff"></path><path d="M81 136.6L168 131.4L122 108.6Z" fill="#ca8498" stroke="#ffffff"></path><path d="M81 136.6L122 108.6L117 95.7Z" fill="#bd7596" stroke="#ffffff"></path><path d="M928 233.3L902 182.4L878 187.4Z" fill="#bd7596" stroke="#ffffff"></path><path d="M849 300L886 300L874 277.1Z" fill="#ca8498" stroke="#ffffff"></path><path d="M874 277.1L902 257.1L823 238.3Z" fill="#dea5a4" stroke="#ffffff"></path><path d="M886 300L902 257.1L874 277.1Z" fill="#a36196" stroke="#ffffff"></path><path d="M14 88.7L117 95.7L118 54.7Z" fill="#985c97" stroke="#ffffff"></path><path d="M14 88.7L81 136.6L117 95.7Z" fill="#bd7596" stroke="#ffffff"></path><path d="M899 56.7L832 12.9L836 68.7Z" fill="#dea5a4" stroke="#ffffff"></path><path d="M897 117.6L899 56.7L836 68.7Z" fill="#ca8498" stroke="#ffffff"></path><path d="M905 50.9L899 56.7L960 85.7Z" fill="#d08c9a" stroke="#ffffff"></path><path d="M64 239.1L98 300L107 280.1Z" fill="#d08c9a" stroke="#ffffff"></path><path d="M107 280.1L98 300L171 300Z" fill="#ac6796" stroke="#ffffff"></path><path d="M941 118.7L899 56.7L897 117.6Z" fill="#c47c97" stroke="#ffffff"></path><path d="M899 56.7L905 50.9L878 0Z" fill="#d5949d" stroke="#ffffff"></path><path d="M941 118.7L890 161.6L960 144.6Z" fill="#ca8498" stroke="#ffffff"></path><path d="M81 136.6L68 183.4L178 185.3Z" fill="#a36196" stroke="#ffffff"></path><path d="M960 272.1L928 233.3L902 257.1Z" fill="#d08c9a" stroke="#ffffff"></path><path d="M902 257.1L928 233.3L878 187.4Z" fill="#c47c97" stroke="#ffffff"></path><path d="M68 183.4L62 217.3L173 236.1Z" fill="#da9ca0" stroke="#ffffff"></path><path d="M62 217.3L64 239.1L173 236.1Z" fill="#d5949d" stroke="#ffffff"></path><path d="M960 45.9L908 0L905 50.9Z" fill="#b56e96" stroke="#ffffff"></path><path d="M905 50.9L908 0L878 0Z" fill="#c47c97" stroke="#ffffff"></path><path d="M960 144.6L890 161.6L902 182.4Z" fill="#dea5a4" stroke="#ffffff"></path><path d="M125 36.9L78 0L118 54.7Z" fill="#c47c97" stroke="#ffffff"></path><path d="M24 198.3L62 217.3L68 183.4Z" fill="#dea5a4" stroke="#ffffff"></path><path d="M24 198.3L44 228.1L62 217.3Z" fill="#bd7596" stroke="#ffffff"></path><path d="M170 0L78 0L125 36.9Z" fill="#ac6796" stroke="#ffffff"></path><path d="M78 0L67 3.9L118 54.7Z" fill="#ac6796" stroke="#ffffff"></path><path d="M24 198.3L68 183.4L19 182.4Z" fill="#ca8498" stroke="#ffffff"></path><path d="M62 217.3L44 228.1L64 239.1Z" fill="#dea5a4" stroke="#ffffff"></path><path d="M64 239.1L12 300L98 300Z" fill="#d5949d" stroke="#ffffff"></path><path d="M74 0L67 3.9L78 0Z" fill="#ca8498" stroke="#ffffff"></path><path d="M960 272.1L960 187.3L928 233.3Z" fill="#a36196" stroke="#ffffff"></path><path d="M928 233.3L960 187.3L902 182.4Z" fill="#ca8498" stroke="#ffffff"></path><path d="M960 187.3L960 144.6L902 182.4Z" fill="#c47c97" stroke="#ffffff"></path><path d="M941 118.7L960 85.7L899 56.7Z" fill="#d08c9a" stroke="#ffffff"></path><path d="M960 144.6L960 143.4L941 118.7Z" fill="#d5949d" stroke="#ffffff"></path><path d="M960 143.4L960 85.7L941 118.7Z" fill="#dea5a4" stroke="#ffffff"></path><path d="M19 182.4L68 183.4L81 136.6Z" fill="#a36196" stroke="#ffffff"></path><path d="M960 300L960 272.1L902 257.1Z" fill="#d08c9a" stroke="#ffffff"></path><path d="M0 167.4L19 182.4L0 126.6Z" fill="#a36196" stroke="#ffffff"></path><path d="M960 85.7L960 45.9L905 50.9Z" fill="#ac6796" stroke="#ffffff"></path><path d="M886 300L960 300L902 257.1Z" fill="#a36196" stroke="#ffffff"></path><path d="M67 3.9L14 88.7L118 54.7Z" fill="#a36196" stroke="#ffffff"></path><path d="M960 45.9L960 0L908 0Z" fill="#da9ca0" stroke="#ffffff"></path><path d="M0 126.6L19 182.4L81 136.6Z" fill="#d08c9a" stroke="#ffffff"></path><path d="M19 182.4L0 167.4L24 198.3Z" fill="#a36196" stroke="#ffffff"></path><path d="M0 254.1L64 239.1L44 228.1Z" fill="#c47c97" stroke="#ffffff"></path><path d="M14 88.7L0 126.6L81 136.6Z" fill="#a36196" stroke="#ffffff"></path><path d="M0 249.3L44 228.1L24 198.3Z" fill="#ac6796" stroke="#ffffff"></path><path d="M0 254.1L12 300L64 239.1Z" fill="#ca8498" stroke="#ffffff"></path><path d="M0 167.4L0 249.3L24 198.3Z" fill="#da9ca0" stroke="#ffffff"></path><path d="M0 249.3L0 254.1L44 228.1Z" fill="#bd7596" stroke="#ffffff"></path><path d="M67 3.9L0 50.7L14 88.7Z" fill="#ca8498" stroke="#ffffff"></path><path d="M14 88.7L0 50.7L0 126.6Z" fill="#b56e96" stroke="#ffffff"></path><path d="M0 254.1L0 300L12 300Z" fill="#c47c97" stroke="#ffffff"></path><path d="M0 0L0 22.9L67 3.9Z" fill="#d5949d" stroke="#ffffff"></path><path d="M67 3.9L0 22.9L0 50.7Z" fill="#b56e96" stroke="#ffffff"></path><path d="M74 0L0 0L67 3.9Z" fill="#d5949d" stroke="#ffffff"></path></g></svg>